# xmcd CD database file
#
# Track frame offsets:
#	150
#	22048
#	37020
#	51373
#	63919
#	77080
#	88190
#	101930
#	113971
#	127952
#	138366
#	150437
#	165211
#	178235
#	211616
#
# Disc length: 3242 seconds
#
# Revision: 0
# Processed by: cddbd v1.5.2PL0 Copyright (c) Steve Scherf et al.
# Submitted via: CDex 1.51
#
DISCID=c60ca80f
DTITLE=Sidney Bechet - In Europe - 1949-1958
DYEAR=2011
DGENRE=Jazz
TTITLE0=Blues in the Air
TTITLE1=Summertime
TTITLE2=Klook's Blues
TTITLE3=American Rhythm
TTITLE4=Out of Nowhere
TTITLE5=After You've Gone
TTITLE6=Bechet Creole Bues
TTITLE7=Egyptian Fantasy
TTITLE8=Petite Fleur
TTITLE9=I Remember When (Si tu vois ma mère)
TTITLE10=All the Things You Are
TTITLE11=Rose Room
TTITLE12=Embraceable You
TTITLE13=Society Blues
TTITLE14=St. Louis Blues
EXTD=YEAR: 2011
EXTT0=
EXTT1=
EXTT2=
EXTT3=
EXTT4=
EXTT5=
EXTT6=
EXTT7=
EXTT8=
EXTT9=
EXTT10=
EXTT11=
EXTT12=
EXTT13=
EXTT14=
PLAYORDER=
